<svg width="200" height="200" viewBox="0 0 200 200" fill="none" xmlns="http://www.w3.org/2000/svg">
<path d="M119.667 135.858L118.229 131.295C118.224 131.28 118.215 131.267 118.202 131.257C118.189 131.248 118.174 131.243 118.159 131.243H110.989C110.973 131.243 110.958 131.248 110.945 131.257C110.932 131.267 110.923 131.28 110.918 131.295L109.469 135.857C109.465 135.868 109.464 135.88 109.466 135.892C109.467 135.904 109.472 135.916 109.479 135.926C109.486 135.935 109.495 135.943 109.505 135.949C109.516 135.954 109.527 135.957 109.539 135.957L111.9 135.955C111.91 135.955 111.919 135.957 111.928 135.961C111.937 135.965 111.945 135.971 111.952 135.978C111.959 135.985 111.965 135.993 111.968 136.002C111.972 136.012 111.974 136.022 111.974 136.032L111.976 138.202C111.976 138.222 111.968 138.241 111.954 138.256C111.94 138.27 111.921 138.278 111.902 138.278H104.991C104.971 138.278 104.952 138.27 104.938 138.256C104.925 138.241 104.917 138.222 104.917 138.202V136.033C104.917 136.013 104.925 135.994 104.938 135.979C104.952 135.965 104.971 135.957 104.991 135.957H106.502C106.518 135.957 106.533 135.952 106.545 135.942C106.557 135.933 106.566 135.92 106.571 135.905L113.531 115.028C113.536 115.013 113.545 115 113.558 114.99C113.57 114.981 113.585 114.976 113.6 114.976H118.061C118.076 114.976 118.091 114.981 118.104 114.99C118.116 115 118.125 115.013 118.13 115.028L125.09 135.902C125.095 135.917 125.104 135.93 125.116 135.939C125.129 135.948 125.143 135.953 125.159 135.954L126.654 135.962C126.673 135.962 126.692 135.97 126.706 135.985C126.72 135.999 126.728 136.018 126.728 136.039V138.202C126.728 138.222 126.72 138.241 126.706 138.256C126.692 138.27 126.673 138.278 126.654 138.278H117.224C117.204 138.278 117.185 138.27 117.171 138.256C117.157 138.241 117.15 138.222 117.15 138.202V136.032C117.15 136.011 117.157 135.992 117.171 135.978C117.185 135.963 117.204 135.955 117.224 135.955L119.596 135.959C119.608 135.959 119.62 135.956 119.63 135.951C119.641 135.945 119.65 135.937 119.657 135.927C119.664 135.918 119.668 135.906 119.67 135.894C119.672 135.882 119.671 135.87 119.667 135.858ZM111.646 128.727C111.643 128.735 111.643 128.744 111.644 128.753C111.646 128.762 111.649 128.77 111.654 128.777C111.659 128.785 111.666 128.79 111.673 128.795C111.681 128.799 111.69 128.801 111.698 128.801L117.496 128.791C117.505 128.791 117.514 128.789 117.521 128.785C117.529 128.781 117.536 128.775 117.541 128.768C117.547 128.76 117.55 128.752 117.552 128.743C117.553 128.734 117.553 128.725 117.55 128.716L114.634 119.278C114.631 119.266 114.624 119.256 114.614 119.248C114.604 119.241 114.593 119.237 114.581 119.237C114.569 119.237 114.558 119.241 114.548 119.248C114.539 119.256 114.532 119.266 114.528 119.278L111.646 128.727Z" fill="#222222"/>
<path d="M27.7374 116.752V115.067C27.7363 115.007 27.7649 114.977 27.8231 114.976H31.5157C31.5763 114.976 31.6065 115.006 31.6065 115.067L31.6048 121.796C31.6048 121.823 31.5944 121.849 31.5758 121.868C31.5572 121.887 31.5319 121.898 31.5056 121.898H27.8248C27.8128 121.898 27.8008 121.895 27.7897 121.891C27.7786 121.886 27.7685 121.879 27.76 121.87C27.7516 121.861 27.7449 121.85 27.7404 121.839C27.736 121.827 27.7338 121.815 27.734 121.803C27.7542 120.433 27.8484 119.302 27.0833 118.382C25.9096 116.971 22.4491 116.82 20.9239 117.715C19.6213 118.481 19.1163 119.607 19.4089 121.093C19.6174 122.156 20.4228 122.712 21.4334 123.088C23.9036 124.007 26.6057 123.983 29.0237 125.519C31.3184 126.976 32.3172 129.223 32.0202 132.26C31.7041 135.5 29.3079 137.696 26.3434 138.389C23.7102 139.005 20.7961 138.886 18.9482 136.562C18.8876 136.486 18.8574 136.497 18.8574 136.594V138.195C18.8574 138.25 18.831 138.278 18.7783 138.278H15.0824C15.0275 138.278 15 138.249 15 138.191V131.48C15 131.457 15.0089 131.435 15.0246 131.419C15.0404 131.403 15.0618 131.394 15.0841 131.394H18.7413C18.8108 131.394 18.8462 131.429 18.8473 131.501C18.8473 132.391 18.7867 133.533 19.1197 134.27C20.0395 136.31 23.4092 136.3 25.2185 135.869C27.1102 135.419 28.0855 133.678 27.5507 131.711C27.3221 130.869 26.6293 130.356 25.7969 130.062C24.8239 129.718 23.676 129.414 22.3532 129.149C21.0416 128.886 19.3551 128.301 18.2419 127.556C16.0683 126.105 15.0454 123.948 15.1732 121.087C15.3262 117.655 17.4516 115.495 20.5809 114.809C22.819 114.317 26.2745 114.435 27.65 116.777C27.7094 116.877 27.7385 116.869 27.7374 116.752Z" fill="#222222"/>
<path d="M133.127 115.663C135.892 114.162 140.267 113.862 142.286 116.87C142.292 116.878 142.3 116.884 142.309 116.887C142.318 116.891 142.328 116.891 142.337 116.888C142.346 116.885 142.354 116.879 142.36 116.871C142.365 116.864 142.369 116.854 142.369 116.844L142.372 115.067C142.372 115.007 142.401 114.977 142.46 114.977L146.083 114.974C146.153 114.974 146.188 115.01 146.188 115.083V122.359C146.188 122.419 146.158 122.449 146.1 122.449L142.456 122.447C142.401 122.447 142.374 122.419 142.374 122.362C142.377 122.098 142.363 121.593 142.332 120.848C142.224 118.363 140.467 117.21 138.214 117.217C136.004 117.224 134.382 118.405 133.85 120.706C133.728 121.233 133.659 122.01 133.642 123.039C133.596 125.775 133.582 127.925 133.6 129.489C133.637 132.506 134.668 134.923 137.78 135.432C138.984 135.629 140.117 135.485 141.178 135.003C142.66 134.327 143.761 132.984 144.361 131.437C144.366 131.426 144.373 131.416 144.381 131.408C144.389 131.4 144.4 131.393 144.411 131.39C144.422 131.386 144.433 131.385 144.445 131.386C144.456 131.387 144.467 131.391 144.477 131.397L146.267 132.462C146.317 132.492 146.333 132.535 146.314 132.59C145.147 136.042 142.181 138.406 138.675 138.674C133.771 139.047 129.813 136.241 128.424 131.385C127.212 127.145 127.521 122.078 130.121 118.346C130.905 117.219 131.908 116.325 133.127 115.663Z" fill="#222222"/>
<path d="M48.1626 135.879L46.7131 131.285C46.7093 131.273 46.7018 131.262 46.6919 131.255C46.6819 131.247 46.67 131.243 46.6577 131.243H39.4659C39.4536 131.243 39.4416 131.247 39.4316 131.255C39.4217 131.262 39.4142 131.273 39.4104 131.285L37.9525 135.879C37.9496 135.888 37.9488 135.898 37.9502 135.907C37.9516 135.917 37.9552 135.926 37.9606 135.934C37.966 135.941 37.9731 135.948 37.9813 135.952C37.9896 135.956 37.9987 135.959 38.008 135.959L40.4008 135.957C40.4164 135.957 40.4314 135.964 40.4424 135.975C40.4534 135.986 40.4596 136.002 40.4596 136.018V138.217C40.4596 138.233 40.4534 138.249 40.4424 138.26C40.4314 138.271 40.4164 138.278 40.4008 138.278H33.4663C33.4585 138.278 33.4509 138.276 33.4437 138.273C33.4366 138.27 33.4301 138.266 33.4247 138.26C33.4192 138.254 33.4149 138.248 33.4119 138.24C33.4089 138.233 33.4074 138.225 33.4074 138.217L33.4108 136.021C33.4108 136.005 33.417 135.99 33.428 135.978C33.4391 135.967 33.454 135.961 33.4696 135.961L35.0032 135.957C35.0155 135.957 35.0274 135.953 35.0374 135.946C35.0474 135.938 35.0548 135.928 35.0587 135.916L42.0234 115.017C42.0273 115.005 42.0347 114.995 42.0447 114.987C42.0546 114.98 42.0666 114.976 42.0789 114.976H46.5618C46.5741 114.976 46.5861 114.98 46.5961 114.987C46.606 114.995 46.6134 115.005 46.6173 115.017L53.5838 135.917C53.5876 135.929 53.5951 135.94 53.605 135.947C53.615 135.955 53.627 135.959 53.6393 135.959L55.161 135.955C55.1766 135.955 55.1916 135.962 55.2026 135.973C55.2137 135.985 55.2199 136 55.2199 136.016L55.2232 138.217C55.2232 138.233 55.217 138.249 55.206 138.26C55.195 138.271 55.18 138.278 55.1644 138.278H45.6975C45.6819 138.278 45.6669 138.271 45.6559 138.26C45.6449 138.249 45.6387 138.233 45.6387 138.217L45.6404 136.018C45.6404 136.002 45.6466 135.986 45.6576 135.975C45.6686 135.964 45.6836 135.957 45.6992 135.957L48.1071 135.959C48.1164 135.959 48.1255 135.956 48.1338 135.952C48.142 135.948 48.1491 135.941 48.1546 135.934C48.16 135.926 48.1635 135.917 48.1649 135.907C48.1663 135.898 48.1655 135.888 48.1626 135.879ZM43.0155 119.243L40.1469 128.702C40.1289 128.765 40.1514 128.796 40.2141 128.796H45.9565C46.0305 128.796 46.0562 128.76 46.0338 128.688L43.103 119.241C43.0738 119.146 43.0447 119.147 43.0155 119.243Z" fill="#222222"/>
<path d="M59.0537 117.27L56.9182 117.267C56.9021 117.267 56.8867 117.26 56.8754 117.249C56.864 117.237 56.8577 117.221 56.8577 117.204L56.861 115.038C56.861 115.021 56.8674 115.006 56.8787 114.994C56.8901 114.982 56.9055 114.976 56.9216 114.976H65.6452C65.6558 114.976 65.6661 114.979 65.6753 114.984C65.6844 114.989 65.692 114.997 65.6973 115.007L74.9052 131.485C74.912 131.497 74.9222 131.506 74.9345 131.511C74.9467 131.517 74.9603 131.517 74.9731 131.514C74.9858 131.51 74.9971 131.503 75.0052 131.492C75.0133 131.481 75.0178 131.468 75.0179 131.454L75.0162 117.331C75.0162 117.314 75.0098 117.299 74.9985 117.287C74.9871 117.275 74.9717 117.269 74.9557 117.269H72.8017C72.7856 117.269 72.7702 117.262 72.7589 117.25C72.7475 117.239 72.7411 117.223 72.7411 117.206L72.7395 115.038C72.7395 115.021 72.7458 115.006 72.7572 114.994C72.7685 114.982 72.7839 114.976 72.8 114.976H79.8018C79.8178 114.976 79.8332 114.982 79.8446 114.994C79.8559 115.006 79.8623 115.021 79.8623 115.038V117.204C79.8623 117.221 79.8559 117.237 79.8446 117.249C79.8332 117.26 79.8178 117.267 79.8018 117.267L77.7049 117.27C77.6889 117.27 77.6735 117.277 77.6621 117.289C77.6508 117.3 77.6444 117.316 77.6444 117.333V138.215C77.6444 138.232 77.638 138.248 77.6267 138.26C77.6153 138.271 77.5999 138.278 77.5839 138.278H72.8319C72.8214 138.278 72.811 138.275 72.8018 138.269C72.7927 138.264 72.7851 138.256 72.7798 138.247L61.8702 119.04C61.8635 119.029 61.8532 119.019 61.841 119.014C61.8287 119.009 61.8152 119.008 61.8024 119.012C61.7896 119.015 61.7783 119.023 61.7702 119.034C61.7621 119.045 61.7577 119.058 61.7576 119.071L61.7559 135.893C61.7559 135.91 61.7623 135.925 61.7736 135.937C61.785 135.949 61.8004 135.955 61.8164 135.955L63.9586 135.961C63.9747 135.961 63.9901 135.967 64.0014 135.979C64.0128 135.991 64.0192 136.006 64.0192 136.023L64.0225 138.215C64.0225 138.232 64.0162 138.248 64.0048 138.26C63.9935 138.271 63.9781 138.278 63.962 138.278H56.9182C56.9102 138.278 56.9024 138.276 56.895 138.273C56.8877 138.27 56.881 138.265 56.8754 138.26C56.8698 138.254 56.8653 138.247 56.8623 138.239C56.8592 138.232 56.8577 138.224 56.8577 138.215L56.861 136.021C56.861 136.005 56.8674 135.989 56.8787 135.977C56.8901 135.965 56.9055 135.959 56.9216 135.959L59.0554 135.955C59.0633 135.955 59.0712 135.954 59.0785 135.951C59.0859 135.948 59.0926 135.943 59.0982 135.937C59.1038 135.931 59.1083 135.924 59.1113 135.917C59.1143 135.909 59.1159 135.901 59.1159 135.893L59.1142 117.333C59.1142 117.316 59.1079 117.3 59.0965 117.289C59.0851 117.277 59.0698 117.27 59.0537 117.27Z" fill="#222222"/>
<path d="M84.6546 135.884V117.36C84.6546 117.3 84.6249 117.27 84.5655 117.27L82.4855 117.269C82.4193 117.269 82.3863 117.234 82.3863 117.166V115.081C82.3863 115.017 82.4176 114.984 82.4804 114.984C87.9565 114.963 91.6099 114.964 93.4405 114.986C95.6634 115.014 97.9772 115.755 99.7562 117.149C103.276 119.906 104.273 124.347 103.736 128.744C103.158 133.493 100.198 137 95.6214 138.022C94.9207 138.179 93.9914 138.26 92.8334 138.267C89.3796 138.287 85.9253 138.288 82.4703 138.269C82.4143 138.269 82.3863 138.24 82.3863 138.183L82.3879 136.077C82.3879 135.997 82.4266 135.957 82.504 135.957H84.5823C84.6305 135.957 84.6546 135.933 84.6546 135.884ZM96.1544 118.498C94.4796 117.3 92.0482 117.44 90.0573 117.508C90.0068 117.509 89.9816 117.535 89.9816 117.587V135.677C89.9816 135.732 90.008 135.762 90.0606 135.767C91.509 135.899 92.9394 135.82 94.3518 135.528C96.3579 135.112 97.6257 133.784 97.8561 131.634C97.9183 131.044 98.0259 130.503 98.0259 129.894C98.0214 127.768 98.0209 125.643 98.0242 123.517C98.0254 123.18 98.0119 122.861 97.9839 122.561C97.8292 120.912 97.4912 119.458 96.1544 118.498Z" fill="#222222"/>
<path d="M164.879 117.27L162.776 117.269C162.76 117.269 162.744 117.262 162.733 117.25C162.721 117.239 162.715 117.223 162.715 117.206L162.712 115.038C162.712 115.021 162.718 115.006 162.729 114.994C162.741 114.982 162.756 114.976 162.772 114.976H172.498C172.514 114.976 172.529 114.982 172.541 114.994C172.552 115.006 172.559 115.021 172.559 115.038V117.206C172.559 117.223 172.552 117.239 172.541 117.25C172.529 117.262 172.514 117.269 172.498 117.269H170.349C170.333 117.269 170.318 117.275 170.306 117.287C170.295 117.299 170.289 117.314 170.289 117.331V135.893C170.289 135.91 170.295 135.925 170.306 135.937C170.318 135.949 170.333 135.955 170.349 135.955L172.498 135.957C172.514 135.957 172.529 135.964 172.541 135.975C172.552 135.987 172.559 136.003 172.559 136.019V138.215C172.559 138.232 172.552 138.248 172.541 138.26C172.529 138.271 172.514 138.278 172.498 138.278H162.772C162.756 138.278 162.741 138.271 162.729 138.26C162.718 138.248 162.712 138.232 162.712 138.215L162.717 136.018C162.717 136.001 162.723 135.985 162.734 135.974C162.746 135.962 162.761 135.955 162.777 135.955L164.879 135.959C164.887 135.959 164.895 135.957 164.902 135.954C164.91 135.951 164.916 135.946 164.922 135.941C164.928 135.935 164.932 135.928 164.935 135.92C164.938 135.913 164.94 135.905 164.94 135.897V127.651C164.94 127.635 164.933 127.619 164.922 127.607C164.911 127.595 164.895 127.589 164.879 127.589H156.514C156.498 127.589 156.482 127.595 156.471 127.607C156.46 127.619 156.453 127.635 156.453 127.651L156.451 135.893C156.451 135.91 156.458 135.925 156.469 135.937C156.481 135.949 156.496 135.955 156.512 135.955L158.654 135.959C158.67 135.959 158.686 135.965 158.697 135.977C158.708 135.989 158.715 136.005 158.715 136.021L158.718 138.215C158.718 138.232 158.712 138.248 158.7 138.26C158.689 138.271 158.674 138.278 158.658 138.278H148.922C148.906 138.278 148.89 138.271 148.879 138.26C148.868 138.248 148.861 138.232 148.861 138.215L148.863 136.021C148.863 136.005 148.869 135.989 148.881 135.977C148.892 135.965 148.907 135.959 148.923 135.959L151.062 135.955C151.078 135.955 151.094 135.949 151.105 135.937C151.116 135.925 151.123 135.91 151.123 135.893V117.333C151.123 117.316 151.116 117.3 151.105 117.289C151.094 117.277 151.078 117.27 151.062 117.27L148.918 117.267C148.902 117.267 148.887 117.26 148.876 117.249C148.864 117.237 148.858 117.221 148.858 117.204L148.865 115.038C148.865 115.021 148.871 115.006 148.882 114.994C148.894 114.982 148.909 114.976 148.925 114.976H158.656C158.672 114.976 158.687 114.982 158.699 114.994C158.71 115.006 158.716 115.021 158.716 115.038V117.208C158.716 117.224 158.71 117.24 158.699 117.252C158.687 117.264 158.672 117.27 158.656 117.27L156.514 117.269C156.498 117.269 156.482 117.275 156.471 117.287C156.46 117.299 156.453 117.314 156.453 117.331L156.451 124.968C156.451 124.977 156.453 124.985 156.456 124.992C156.459 125 156.464 125.007 156.469 125.013C156.475 125.018 156.481 125.023 156.489 125.026C156.496 125.029 156.504 125.031 156.512 125.031L164.879 125.033C164.895 125.033 164.911 125.026 164.922 125.014C164.933 125.003 164.94 124.987 164.94 124.97V117.333C164.94 117.316 164.933 117.3 164.922 117.289C164.911 117.277 164.895 117.27 164.879 117.27Z" fill="#222222"/>
<path d="M177.268 117.27L175.155 117.267C175.134 117.267 175.115 117.258 175.1 117.243C175.086 117.229 175.077 117.208 175.077 117.187L175.079 115.055C175.079 115.034 175.087 115.014 175.102 114.999C175.116 114.984 175.136 114.976 175.156 114.976H184.847C184.867 114.976 184.887 114.984 184.902 114.999C184.916 115.014 184.924 115.034 184.924 115.055L184.928 117.189C184.928 117.199 184.926 117.21 184.922 117.219C184.918 117.229 184.912 117.238 184.905 117.245C184.898 117.253 184.889 117.258 184.88 117.262C184.871 117.266 184.861 117.269 184.85 117.269H182.735C182.715 117.269 182.695 117.277 182.68 117.292C182.666 117.307 182.658 117.327 182.658 117.348V135.874C182.658 135.895 182.666 135.915 182.68 135.93C182.695 135.945 182.715 135.954 182.735 135.954L184.845 135.961C184.855 135.961 184.866 135.963 184.875 135.967C184.884 135.971 184.893 135.977 184.9 135.984C184.907 135.991 184.913 136 184.917 136.01C184.921 136.019 184.923 136.03 184.923 136.04L184.929 138.198C184.929 138.219 184.921 138.24 184.907 138.254C184.892 138.269 184.873 138.278 184.852 138.278H175.155C175.134 138.278 175.115 138.269 175.1 138.254C175.086 138.24 175.077 138.219 175.077 138.198L175.079 136.04C175.079 136.019 175.087 135.999 175.102 135.984C175.116 135.969 175.136 135.961 175.156 135.961L177.268 135.955C177.289 135.955 177.309 135.947 177.323 135.932C177.338 135.917 177.346 135.897 177.346 135.876V117.35C177.346 117.329 177.338 117.309 177.323 117.294C177.309 117.279 177.289 117.27 177.268 117.27Z" fill="#222222"/>
<path d="M85.3961 153.866L85.3911 152.922C85.39 152.858 85.4214 152.825 85.4853 152.825H86.7985C86.8534 152.825 86.8809 152.854 86.8809 152.912V156.902C86.8809 156.927 86.8715 156.95 86.8548 156.967C86.8381 156.984 86.8154 156.994 86.7918 156.994L85.4953 156.991C85.4711 156.991 85.4478 156.981 85.4305 156.963C85.4132 156.946 85.4033 156.922 85.4029 156.897C85.3911 155.763 85.4197 154.791 84.3183 154.213C82.4031 153.207 79.9481 153.799 79.0165 155.934C78.752 156.542 78.5945 157.179 78.544 157.848C78.4386 159.24 78.4532 160.63 78.5877 162.018C78.919 165.47 83.0622 167.013 85.3961 164.446C85.7308 164.077 85.9594 163.606 86.2016 163.144C86.2296 163.091 86.2705 163.078 86.3243 163.104L86.9683 163.426C87.0136 163.449 87.0487 163.488 87.0662 163.537C87.0837 163.586 87.0824 163.64 87.0625 163.688C86.0928 166.006 84.38 167.121 81.9238 167.034C79.3579 166.942 77.6579 165.286 76.9785 162.841C76.4046 160.776 76.4175 158.716 77.0172 156.658C77.7784 154.053 79.4946 152.7 82.166 152.599C83.4349 152.55 84.5049 152.976 85.376 153.877C85.3894 153.891 85.3961 153.887 85.3961 153.866Z" fill="#222222"/>
<path d="M102.897 157.886C102.897 157.893 102.9 157.9 102.904 157.905C102.908 157.911 102.914 157.914 102.921 157.916C102.927 157.918 102.934 157.917 102.94 157.914C102.946 157.911 102.951 157.906 102.954 157.9C103.546 156.715 104.432 156.161 105.613 156.237C106.089 156.268 106.474 156.4 106.766 156.632C107.419 157.15 107.528 158.26 107.024 158.908C106.747 159.262 106.351 159.352 105.836 159.178C105.217 158.968 104.971 158.509 105.098 157.801C105.139 157.574 105.238 157.395 105.396 157.264C105.45 157.219 105.442 157.193 105.374 157.186C104.449 157.093 103.514 157.924 103.166 158.707C103.009 159.06 102.933 159.651 102.936 160.48C102.944 162.233 102.945 163.984 102.939 165.733C102.939 165.794 102.97 165.825 103.03 165.825L104.675 165.827C104.73 165.827 104.757 165.855 104.757 165.911L104.755 166.764C104.754 166.824 104.725 166.854 104.668 166.854H99.9126C99.8565 166.854 99.8285 166.825 99.8285 166.767L99.8302 165.931C99.8302 165.864 99.8627 165.83 99.9277 165.828L101.172 165.823C101.23 165.823 101.259 165.793 101.259 165.731V157.936C101.259 157.88 101.233 157.847 101.179 157.838L99.9176 157.611C99.8582 157.6 99.8285 157.564 99.8285 157.503V156.901C99.8285 156.845 99.8554 156.812 99.9092 156.8L102.805 156.218C102.869 156.206 102.901 156.233 102.901 156.3L102.897 157.886Z" fill="#222222"/>
<path d="M97.6577 164.135C96.2502 168.192 90.4222 168.062 89.1526 163.89C88.2295 160.856 89.0786 156.904 92.6434 156.281C93.5884 156.115 94.497 156.223 95.3691 156.604C98.0898 157.794 98.5354 161.601 97.6577 164.135ZM96.1107 159.812C95.8349 156.996 92.1037 156.331 91.0376 158.833C90.8324 159.315 90.7159 160.088 90.6878 161.154C90.6323 163.215 90.666 165.666 93.0016 165.967C94.7823 166.199 96.0636 165.037 96.1645 163.192C96.2306 161.984 96.2127 160.857 96.1107 159.812Z" fill="#222222"/>
<path d="M111.317 165.51L111.318 169.709C111.318 169.787 111.356 169.826 111.431 169.826H113.038C113.11 169.826 113.146 169.862 113.146 169.936V170.735C113.146 170.763 113.135 170.79 113.116 170.809C113.098 170.829 113.072 170.84 113.045 170.84L108.325 170.839C108.242 170.839 108.201 170.796 108.201 170.71V169.985C108.2 169.965 108.204 169.945 108.212 169.926C108.219 169.907 108.23 169.89 108.244 169.875C108.258 169.861 108.274 169.849 108.293 169.841C108.311 169.833 108.33 169.829 108.35 169.829L109.539 169.822C109.567 169.822 109.593 169.811 109.613 169.79C109.632 169.77 109.643 169.742 109.643 169.713L109.645 157.947C109.645 157.883 109.615 157.846 109.554 157.836L108.286 157.612C108.262 157.608 108.241 157.595 108.225 157.576C108.209 157.556 108.201 157.532 108.201 157.507L108.199 156.942C108.199 156.86 108.239 156.811 108.318 156.795L111.206 156.223C111.281 156.208 111.318 156.24 111.318 156.319L111.315 157.846C111.315 157.857 111.319 157.867 111.325 157.875C111.332 157.883 111.341 157.888 111.35 157.891C111.36 157.893 111.371 157.893 111.38 157.889C111.389 157.885 111.397 157.878 111.402 157.869C111.961 156.809 112.838 156.338 114.014 156.244C118.027 155.926 118.882 160.434 118.256 163.461C117.725 166.031 115.905 167.595 113.255 166.958C112.51 166.779 111.893 166.287 111.404 165.484C111.346 165.388 111.317 165.397 111.317 165.51ZM111.491 164.505C111.957 165.562 113.286 165.957 114.311 165.801C116.966 165.392 116.716 161.992 116.546 160.013C116.448 158.87 115.63 157.834 114.53 157.555C113.198 157.218 111.323 157.919 111.318 159.623C111.315 160.786 111.315 161.949 111.32 163.113C111.322 163.785 111.379 164.249 111.491 164.505Z" fill="#222222"/>
<path d="M121.384 167.101C122.089 167.101 122.662 166.512 122.662 165.785C122.662 165.058 122.089 164.469 121.384 164.469C120.678 164.469 120.106 165.058 120.106 165.785C120.106 166.512 120.678 167.101 121.384 167.101Z" fill="#222222"/>
<path d="M35.0435 95.5753C35.1074 64.2545 55.963 37.686 85.4886 30.7775C101.137 27.1147 118.195 29.754 132.054 38.1311C151.99 50.1796 164.141 71.6253 164.198 95.5338C164.198 95.6273 164.153 95.674 164.064 95.674H35.1393C35.1139 95.674 35.0895 95.6636 35.0715 95.6451C35.0536 95.6266 35.0435 95.6015 35.0435 95.5753Z" fill="#0D0D0D"/>
<rect x="35.0503" y="144.513" width="129.139" height="2.07824" rx="1" fill="#0D0D0D"/>
<rect x="35.0503" y="103.987" width="129.139" height="4.15648" rx="1" fill="#0D0D0D"/>
<rect x="35.0503" y="97.7524" width="129.139" height="4.15648" rx="1" fill="#0D0D0D"/>
</svg>
