<svg width="180" height="180" viewBox="0 0 180 180" fill="none" xmlns="http://www.w3.org/2000/svg">
<rect width="180" height="180" fill="#EDE9DD"/>
<path d="M148.101 87.5136H31.2743C31.2171 87.5136 31.1707 87.5601 31.1707 87.6175V91.077C31.1707 91.1344 31.2171 91.1809 31.2743 91.1809H148.101C148.158 91.1809 148.204 91.1344 148.204 91.077V87.6175C148.204 87.5601 148.158 87.5136 148.101 87.5136Z" fill="#4A68D9"/>
<path d="M148.113 93.0146H31.2621C31.2117 93.0146 31.1707 93.0556 31.1707 93.1062V96.5902C31.1707 96.6408 31.2117 96.6819 31.2621 96.6819H148.113C148.164 96.6819 148.204 96.6408 148.204 96.5902V93.1062C148.204 93.0556 148.164 93.0146 148.113 93.0146Z" fill="#4A68D9"/>
<path d="M148.104 128.774H31.2682C31.2144 128.774 31.1707 128.818 31.1707 128.872V130.507C31.1707 130.561 31.2144 130.604 31.2682 130.604H148.104C148.158 130.604 148.201 130.561 148.201 130.507V128.872C148.201 128.818 148.158 128.774 148.104 128.774Z" fill="#4A68D9"/>
<path d="M107.855 121.135L106.552 117.109C106.548 117.095 106.539 117.084 106.528 117.075C106.516 117.067 106.502 117.063 106.488 117.063H99.9905C99.9764 117.063 99.9626 117.067 99.9511 117.075C99.9396 117.084 99.931 117.095 99.9265 117.109L98.613 121.134C98.6096 121.144 98.6086 121.155 98.6102 121.165C98.6119 121.176 98.616 121.186 98.6222 121.194C98.6285 121.203 98.6367 121.21 98.6462 121.215C98.6558 121.22 98.6663 121.222 98.677 121.222L100.816 121.221C100.825 121.221 100.834 121.222 100.842 121.226C100.85 121.229 100.858 121.234 100.864 121.24C100.87 121.247 100.875 121.254 100.878 121.262C100.882 121.27 100.884 121.279 100.884 121.288L100.885 123.203C100.885 123.22 100.878 123.237 100.865 123.25C100.853 123.263 100.836 123.27 100.818 123.27H94.5549C94.5371 123.27 94.52 123.263 94.5075 123.25C94.4949 123.237 94.4878 123.22 94.4878 123.203V121.289C94.4878 121.272 94.4949 121.254 94.5075 121.242C94.52 121.229 94.5371 121.222 94.5549 121.222H95.9248C95.9387 121.222 95.9522 121.217 95.9633 121.209C95.9745 121.201 95.9829 121.19 95.9873 121.176L102.295 102.756C102.299 102.743 102.307 102.731 102.319 102.723C102.33 102.715 102.343 102.71 102.357 102.71H106.4C106.414 102.71 106.427 102.715 106.438 102.723C106.45 102.731 106.458 102.743 106.462 102.756L112.77 121.173C112.774 121.186 112.783 121.198 112.794 121.206C112.805 121.214 112.818 121.219 112.832 121.219L114.187 121.227C114.205 121.227 114.222 121.234 114.234 121.246C114.247 121.259 114.254 121.276 114.254 121.294V123.203C114.254 123.22 114.247 123.237 114.234 123.25C114.222 123.263 114.205 123.27 114.187 123.27H105.641C105.623 123.27 105.606 123.263 105.594 123.25C105.581 123.237 105.574 123.22 105.574 123.203V121.288C105.574 121.27 105.581 121.253 105.594 121.24C105.606 121.228 105.623 121.221 105.641 121.221L107.791 121.224C107.802 121.224 107.812 121.221 107.822 121.216C107.832 121.212 107.84 121.205 107.846 121.196C107.852 121.187 107.856 121.177 107.858 121.167C107.86 121.156 107.859 121.145 107.855 121.135ZM100.586 114.843C100.584 114.85 100.583 114.858 100.585 114.866C100.586 114.874 100.589 114.881 100.594 114.887C100.598 114.894 100.604 114.899 100.611 114.903C100.618 114.906 100.626 114.908 100.634 114.908L105.888 114.899C105.896 114.899 105.904 114.898 105.911 114.894C105.918 114.89 105.924 114.885 105.929 114.879C105.934 114.872 105.937 114.865 105.938 114.857C105.94 114.849 105.939 114.841 105.937 114.833L103.294 106.506C103.291 106.495 103.285 106.486 103.276 106.48C103.267 106.474 103.257 106.47 103.246 106.47C103.236 106.47 103.225 106.474 103.217 106.48C103.208 106.486 103.201 106.495 103.198 106.506L100.586 114.843Z" fill="#222222"/>
<path d="M24.5434 104.278V102.791C24.5424 102.738 24.5683 102.711 24.6211 102.71H27.9675C28.0224 102.71 28.0498 102.737 28.0498 102.791L28.0483 108.727C28.0483 108.751 28.0388 108.774 28.022 108.791C28.0051 108.808 27.9822 108.818 27.9584 108.818H24.6226C24.6117 108.818 24.6009 108.815 24.5908 108.811C24.5807 108.807 24.5715 108.801 24.5639 108.793C24.5562 108.785 24.5502 108.776 24.5461 108.766C24.5421 108.755 24.5401 108.744 24.5403 108.734C24.5586 107.525 24.6439 106.527 23.9506 105.716C22.8869 104.47 19.7508 104.337 18.3686 105.127C17.1881 105.803 16.7305 106.796 16.9956 108.107C17.1846 109.045 17.9145 109.536 18.8304 109.867C21.0689 110.679 23.5178 110.657 25.7091 112.013C27.7887 113.298 28.6939 115.281 28.4247 117.96C28.1382 120.819 25.9667 122.756 23.2801 123.368C20.8937 123.912 18.2528 123.806 16.5781 121.755C16.5232 121.689 16.4958 121.699 16.4958 121.785V123.196C16.4958 123.245 16.4719 123.27 16.4242 123.27H13.0747C13.0249 123.27 13 123.244 13 123.193V117.272C13 117.252 13.008 117.233 13.0223 117.218C13.0366 117.204 13.056 117.196 13.0762 117.196H16.3906C16.4536 117.196 16.4856 117.227 16.4866 117.291C16.4866 118.076 16.4318 119.083 16.7335 119.734C17.5671 121.534 20.6209 121.525 22.2606 121.144C23.975 120.747 24.8588 119.211 24.3742 117.475C24.167 116.733 23.5391 116.281 22.7848 116.021C21.903 115.717 20.8627 115.449 19.6639 115.215C18.4753 114.983 16.9468 114.467 15.938 113.81C13.9682 112.529 13.0411 110.627 13.157 108.102C13.2956 105.074 15.2218 103.168 18.0577 102.563C20.086 102.129 23.2176 102.233 24.4641 104.299C24.518 104.388 24.5444 104.381 24.5434 104.278Z" fill="#222222"/>
<path d="M120.054 103.317C122.559 101.992 126.524 101.727 128.354 104.382C128.359 104.389 128.367 104.394 128.375 104.397C128.383 104.4 128.392 104.4 128.4 104.397C128.408 104.395 128.416 104.39 128.421 104.383C128.426 104.376 128.429 104.367 128.429 104.359L128.432 102.791C128.432 102.738 128.459 102.712 128.511 102.712L131.795 102.708C131.858 102.708 131.89 102.741 131.89 102.805V109.224C131.89 109.277 131.863 109.303 131.811 109.303L128.508 109.302C128.459 109.302 128.434 109.277 128.434 109.227C128.437 108.994 128.424 108.549 128.396 107.892C128.298 105.699 126.706 104.681 124.664 104.687C122.661 104.693 121.191 105.736 120.709 107.766C120.598 108.231 120.535 108.917 120.52 109.825C120.479 112.239 120.466 114.136 120.482 115.515C120.516 118.177 121.45 120.31 124.27 120.759C125.362 120.932 126.388 120.806 127.35 120.38C128.693 119.784 129.691 118.599 130.235 117.234C130.239 117.224 130.245 117.215 130.253 117.208C130.26 117.201 130.269 117.196 130.279 117.192C130.289 117.189 130.3 117.188 130.311 117.189C130.321 117.19 130.331 117.193 130.34 117.199L131.962 118.139C132.007 118.165 132.021 118.203 132.004 118.252C130.947 121.297 128.258 123.383 125.081 123.62C120.638 123.948 117.05 121.473 115.792 117.188C114.693 113.448 114.973 108.976 117.329 105.684C118.04 104.689 118.949 103.9 120.054 103.317Z" fill="#222222"/>
<path d="M43.0539 121.153L41.7403 117.1C41.7368 117.089 41.7301 117.08 41.7211 117.073C41.712 117.067 41.7012 117.063 41.69 117.063H35.1724C35.1613 117.063 35.1504 117.067 35.1414 117.073C35.1324 117.08 35.1256 117.089 35.1221 117.1L33.8009 121.153C33.7983 121.161 33.7976 121.17 33.7988 121.178C33.8001 121.187 33.8033 121.195 33.8082 121.201C33.8131 121.208 33.8196 121.214 33.827 121.218C33.8345 121.222 33.8428 121.224 33.8512 121.224L36.0197 121.222C36.0338 121.222 36.0474 121.228 36.0574 121.238C36.0674 121.248 36.073 121.261 36.073 121.276V123.216C36.073 123.23 36.0674 123.244 36.0574 123.254C36.0474 123.264 36.0338 123.27 36.0197 123.27H29.7352C29.7282 123.27 29.7213 123.268 29.7148 123.266C29.7083 123.263 29.7025 123.259 29.6975 123.254C29.6926 123.249 29.6886 123.243 29.6859 123.237C29.6833 123.23 29.6819 123.223 29.6819 123.216L29.6849 121.279C29.6849 121.265 29.6905 121.251 29.7006 121.241C29.7106 121.231 29.7241 121.225 29.7383 121.225L31.128 121.222C31.1392 121.222 31.15 121.219 31.1591 121.212C31.1681 121.205 31.1748 121.196 31.1783 121.186L37.4902 102.747C37.4937 102.736 37.5005 102.727 37.5095 102.72C37.5185 102.714 37.5294 102.71 37.5405 102.71H41.6032C41.6143 102.71 41.6252 102.714 41.6342 102.72C41.6432 102.727 41.65 102.736 41.6535 102.747L47.9669 121.187C47.9704 121.198 47.9771 121.207 47.9862 121.213C47.9952 121.22 48.006 121.224 48.0172 121.224L49.3963 121.221C49.4104 121.221 49.424 121.226 49.434 121.236C49.444 121.246 49.4496 121.26 49.4496 121.274L49.4527 123.216C49.4527 123.23 49.4471 123.244 49.437 123.254C49.427 123.264 49.4135 123.27 49.3993 123.27H40.8199C40.8058 123.27 40.7922 123.264 40.7822 123.254C40.7722 123.244 40.7666 123.23 40.7666 123.216L40.7681 121.276C40.7681 121.261 40.7737 121.248 40.7837 121.238C40.7937 121.228 40.8073 121.222 40.8214 121.222L43.0036 121.224C43.012 121.224 43.0203 121.222 43.0278 121.218C43.0353 121.214 43.0417 121.208 43.0466 121.201C43.0515 121.195 43.0547 121.187 43.056 121.178C43.0573 121.17 43.0566 121.161 43.0539 121.153ZM38.3893 106.475L35.7896 114.821C35.7733 114.876 35.7936 114.904 35.8505 114.904H41.0546C41.1216 114.904 41.145 114.872 41.1247 114.809L38.4686 106.474C38.4421 106.39 38.4157 106.391 38.3893 106.475Z" fill="#222222"/>
<path d="M52.9241 104.735L50.9887 104.732C50.9742 104.732 50.9602 104.726 50.9499 104.715C50.9396 104.705 50.9339 104.691 50.9339 104.677L50.9369 102.765C50.9369 102.75 50.9427 102.736 50.953 102.726C50.9633 102.716 50.9772 102.71 50.9918 102.71H58.8977C58.9072 102.71 58.9166 102.713 58.9249 102.717C58.9332 102.722 58.9401 102.729 58.9449 102.737L67.2896 117.277C67.2957 117.287 67.3051 117.295 67.3162 117.3C67.3273 117.304 67.3395 117.305 67.3511 117.302C67.3627 117.299 67.3729 117.292 67.3803 117.282C67.3876 117.273 67.3916 117.261 67.3917 117.249L67.3902 104.788C67.3902 104.774 67.3844 104.76 67.3742 104.749C67.3639 104.739 67.3499 104.733 67.3354 104.733H65.3833C65.3687 104.733 65.3548 104.727 65.3445 104.717C65.3342 104.707 65.3284 104.693 65.3284 104.678L65.3269 102.765C65.3269 102.75 65.3327 102.736 65.343 102.726C65.3532 102.716 65.3672 102.71 65.3818 102.71H71.7272C71.7417 102.71 71.7557 102.716 71.766 102.726C71.7763 102.736 71.782 102.75 71.782 102.765V104.677C71.782 104.691 71.7763 104.705 71.766 104.715C71.7557 104.726 71.7417 104.732 71.7272 104.732L69.8269 104.735C69.8124 104.735 69.7984 104.74 69.7881 104.751C69.7778 104.761 69.772 104.775 69.772 104.79V123.215C69.772 123.229 69.7663 123.243 69.756 123.254C69.7457 123.264 69.7317 123.27 69.7172 123.27H65.4107C65.4011 123.27 65.3917 123.267 65.3834 123.262C65.3751 123.258 65.3683 123.251 65.3635 123.242L55.4765 106.296C55.4705 106.286 55.4611 106.278 55.45 106.273C55.4389 106.269 55.4267 106.268 55.4151 106.271C55.4035 106.274 55.3932 106.281 55.3859 106.291C55.3786 106.3 55.3745 106.312 55.3744 106.324L55.3729 121.166C55.3729 121.18 55.3787 121.194 55.389 121.205C55.3993 121.215 55.4132 121.221 55.4278 121.221L57.3692 121.225C57.3838 121.225 57.3977 121.231 57.408 121.241C57.4183 121.252 57.4241 121.266 57.4241 121.28L57.4271 123.215C57.4271 123.229 57.4213 123.243 57.411 123.254C57.4008 123.264 57.3868 123.27 57.3723 123.27H50.9887C50.9815 123.27 50.9744 123.268 50.9677 123.266C50.9611 123.263 50.955 123.259 50.9499 123.254C50.9448 123.249 50.9408 123.242 50.938 123.236C50.9353 123.229 50.9339 123.222 50.9339 123.215L50.9369 121.279C50.9369 121.264 50.9427 121.25 50.953 121.24C50.9633 121.23 50.9772 121.224 50.9918 121.224L52.9256 121.221C52.9328 121.221 52.9399 121.219 52.9466 121.216C52.9532 121.214 52.9593 121.21 52.9644 121.205C52.9695 121.199 52.9735 121.193 52.9763 121.187C52.979 121.18 52.9804 121.173 52.9804 121.166L52.9789 104.79C52.9789 104.775 52.9731 104.761 52.9628 104.751C52.9526 104.74 52.9386 104.735 52.9241 104.735Z" fill="#222222"/>
<path d="M76.1251 121.158V104.814C76.1251 104.761 76.0982 104.735 76.0443 104.735L74.1593 104.733C74.0994 104.733 74.0694 104.703 74.0694 104.643V102.803C74.0694 102.746 74.0978 102.718 74.1547 102.718C79.1175 102.699 82.4284 102.7 84.0874 102.719C86.1019 102.744 88.1988 103.398 89.811 104.628C93.0005 107.06 93.9042 110.978 93.4181 114.858C92.8938 119.048 90.2118 122.142 86.0638 123.044C85.4289 123.182 84.5867 123.254 83.5372 123.261C80.4072 123.278 77.2766 123.278 74.1456 123.262C74.0948 123.262 74.0694 123.237 74.0694 123.186L74.0709 121.328C74.0709 121.257 74.106 121.222 74.1761 121.222H76.0596C76.1033 121.222 76.1251 121.201 76.1251 121.158ZM86.5469 105.818C85.0291 104.761 82.8256 104.884 81.0213 104.944C80.9756 104.945 80.9527 104.968 80.9527 105.014V120.975C80.9527 121.024 80.9766 121.05 81.0244 121.054C82.3369 121.171 83.6332 121.101 84.9133 120.843C86.7313 120.477 87.8803 119.304 88.0891 117.408C88.1454 116.887 88.243 116.41 88.243 115.873C88.2389 113.997 88.2384 112.122 88.2414 110.246C88.2425 109.949 88.2303 109.668 88.2049 109.403C88.0647 107.948 87.7584 106.665 86.5469 105.818Z" fill="#222222"/>
<path d="M148.829 104.735L146.923 104.733C146.908 104.733 146.894 104.727 146.884 104.717C146.874 104.707 146.868 104.693 146.868 104.678L146.865 102.765C146.865 102.75 146.871 102.736 146.881 102.726C146.891 102.716 146.905 102.71 146.92 102.71H155.734C155.749 102.71 155.762 102.716 155.773 102.726C155.783 102.736 155.789 102.75 155.789 102.765V104.678C155.789 104.693 155.783 104.707 155.773 104.717C155.762 104.727 155.749 104.733 155.734 104.733H153.786C153.772 104.733 153.758 104.739 153.748 104.749C153.737 104.76 153.732 104.774 153.732 104.788V121.166C153.732 121.18 153.737 121.194 153.748 121.205C153.758 121.215 153.772 121.221 153.786 121.221L155.734 121.222C155.749 121.222 155.762 121.228 155.773 121.238C155.783 121.249 155.789 121.263 155.789 121.277V123.215C155.789 123.229 155.783 123.243 155.773 123.254C155.762 123.264 155.749 123.27 155.734 123.27H146.92C146.905 123.27 146.891 123.264 146.881 123.254C146.871 123.243 146.865 123.229 146.865 123.215L146.87 121.276C146.87 121.261 146.875 121.247 146.886 121.237C146.896 121.226 146.91 121.221 146.924 121.221L148.829 121.224C148.837 121.224 148.844 121.222 148.85 121.22C148.857 121.217 148.863 121.213 148.868 121.208C148.873 121.203 148.877 121.196 148.88 121.19C148.883 121.183 148.884 121.176 148.884 121.169V113.894C148.884 113.879 148.878 113.865 148.868 113.855C148.858 113.844 148.844 113.839 148.829 113.839H141.248C141.233 113.839 141.22 113.844 141.209 113.855C141.199 113.865 141.193 113.879 141.193 113.894L141.192 121.166C141.192 121.18 141.197 121.194 141.208 121.205C141.218 121.215 141.232 121.221 141.246 121.221L143.188 121.224C143.202 121.224 143.216 121.23 143.227 121.24C143.237 121.25 143.243 121.264 143.243 121.279L143.246 123.215C143.246 123.229 143.24 123.243 143.23 123.254C143.219 123.264 143.206 123.27 143.191 123.27H134.368C134.353 123.27 134.339 123.264 134.329 123.254C134.319 123.243 134.313 123.229 134.313 123.215L134.314 121.279C134.314 121.264 134.32 121.25 134.33 121.24C134.341 121.23 134.355 121.224 134.369 121.224L136.308 121.221C136.322 121.221 136.336 121.215 136.346 121.205C136.357 121.194 136.362 121.18 136.362 121.166V104.79C136.362 104.775 136.357 104.761 136.346 104.751C136.336 104.74 136.322 104.735 136.308 104.735L134.365 104.732C134.35 104.732 134.336 104.726 134.326 104.715C134.316 104.705 134.31 104.691 134.31 104.677L134.316 102.765C134.316 102.75 134.322 102.736 134.332 102.726C134.342 102.716 134.356 102.71 134.371 102.71H143.189C143.204 102.71 143.218 102.716 143.228 102.726C143.239 102.736 143.244 102.75 143.244 102.765V104.68C143.244 104.694 143.239 104.708 143.228 104.719C143.218 104.729 143.204 104.735 143.189 104.735L141.248 104.733C141.233 104.733 141.22 104.739 141.209 104.749C141.199 104.76 141.193 104.774 141.193 104.788L141.192 111.527C141.192 111.534 141.193 111.541 141.196 111.548C141.199 111.554 141.203 111.561 141.208 111.566C141.213 111.571 141.219 111.575 141.225 111.578C141.232 111.58 141.239 111.582 141.246 111.582L148.829 111.583C148.844 111.583 148.858 111.578 148.868 111.567C148.878 111.557 148.884 111.543 148.884 111.528V104.79C148.884 104.775 148.878 104.761 148.868 104.751C148.858 104.74 148.844 104.735 148.829 104.735Z" fill="#222222"/>
<path d="M160.057 104.735L158.142 104.732C158.123 104.732 158.105 104.724 158.092 104.711C158.079 104.698 158.072 104.68 158.072 104.661L158.073 102.78C158.073 102.762 158.081 102.744 158.094 102.731C158.107 102.717 158.125 102.71 158.143 102.71H166.925C166.944 102.71 166.962 102.717 166.975 102.731C166.988 102.744 166.995 102.762 166.995 102.78L166.998 104.663C166.998 104.672 166.997 104.681 166.993 104.69C166.99 104.698 166.984 104.706 166.978 104.713C166.971 104.719 166.964 104.724 166.955 104.728C166.947 104.731 166.938 104.733 166.928 104.733H165.011C164.993 104.733 164.975 104.741 164.962 104.754C164.949 104.767 164.941 104.785 164.941 104.803V121.149C164.941 121.167 164.949 121.185 164.962 121.199C164.975 121.212 164.993 121.219 165.011 121.219L166.924 121.225C166.933 121.225 166.942 121.227 166.951 121.231C166.959 121.234 166.967 121.239 166.973 121.246C166.98 121.252 166.985 121.26 166.989 121.269C166.992 121.277 166.994 121.286 166.994 121.296L167 123.199C167 123.218 166.993 123.236 166.979 123.249C166.966 123.262 166.949 123.27 166.93 123.27H158.142C158.123 123.27 158.105 123.262 158.092 123.249C158.079 123.236 158.072 123.218 158.072 123.199L158.073 121.296C158.073 121.277 158.081 121.259 158.094 121.246C158.107 121.233 158.125 121.225 158.143 121.225L160.057 121.221C160.076 121.221 160.094 121.213 160.107 121.2C160.12 121.187 160.127 121.169 160.127 121.15V104.805C160.127 104.786 160.12 104.768 160.107 104.755C160.094 104.742 160.076 104.735 160.057 104.735Z" fill="#222222"/>
<path d="M76.7971 137.024L76.7926 136.191C76.7915 136.134 76.82 136.105 76.8779 136.105H78.068C78.1178 136.105 78.1427 136.131 78.1427 136.182V139.702C78.1427 139.724 78.1342 139.744 78.1191 139.76C78.1039 139.775 78.0834 139.783 78.0619 139.783L76.887 139.78C76.8651 139.78 76.844 139.772 76.8283 139.756C76.8126 139.741 76.8036 139.72 76.8032 139.698C76.7926 138.697 76.8185 137.84 75.8203 137.329C74.0846 136.441 71.8598 136.964 71.0155 138.848C70.7758 139.384 70.633 139.947 70.5873 140.537C70.4918 141.765 70.505 142.992 70.6269 144.216C70.9271 147.262 74.682 148.623 76.7971 146.358C77.1004 146.033 77.3076 145.617 77.5271 145.209C77.5525 145.163 77.5895 145.151 77.6383 145.174L78.2219 145.458C78.263 145.478 78.2947 145.513 78.3106 145.556C78.3265 145.599 78.3253 145.647 78.3073 145.689C77.4285 147.735 75.8762 148.719 73.6503 148.641C71.3249 148.56 69.7842 147.1 69.1686 144.942C68.6484 143.121 68.6601 141.302 69.2036 139.487C69.8935 137.189 71.4488 135.995 73.8698 135.905C75.0198 135.862 75.9895 136.238 76.7788 137.033C76.791 137.045 76.7971 137.042 76.7971 137.024Z" fill="#222222"/>
<path d="M92.6576 140.57C92.6577 140.576 92.6599 140.582 92.6637 140.587C92.6675 140.592 92.6728 140.595 92.6788 140.597C92.6848 140.598 92.691 140.597 92.6966 140.595C92.7021 140.592 92.7067 140.588 92.7095 140.582C93.2459 139.537 94.049 139.048 95.1187 139.116C95.5505 139.143 95.8989 139.259 96.1641 139.464C96.7554 139.921 96.8544 140.9 96.3972 141.472C96.1463 141.785 95.7877 141.864 95.3214 141.71C94.7596 141.525 94.5366 141.12 94.6524 140.495C94.689 140.295 94.7789 140.137 94.9221 140.022C94.9709 139.982 94.9643 139.959 94.9023 139.953C94.0642 139.87 93.2169 140.604 92.9015 141.295C92.7592 141.606 92.6896 142.128 92.6927 142.859C92.6998 144.406 92.7008 145.95 92.6957 147.494C92.6957 147.548 92.7232 147.575 92.778 147.575L94.2684 147.576C94.3182 147.576 94.3431 147.601 94.3431 147.651L94.3415 148.403C94.3405 148.456 94.3141 148.482 94.2623 148.482H89.9528C89.902 148.482 89.8766 148.457 89.8766 148.406L89.8781 147.668C89.8781 147.609 89.9076 147.579 89.9665 147.578L91.0941 147.573C91.147 147.573 91.1734 147.546 91.1734 147.492V140.615C91.1734 140.565 91.149 140.536 91.1002 140.527L89.9573 140.327C89.9035 140.318 89.8766 140.287 89.8766 140.233V139.701C89.8766 139.652 89.9009 139.622 89.9497 139.612L92.5738 139.099C92.6317 139.088 92.6607 139.111 92.6607 139.171L92.6576 140.57Z" fill="#222222"/>
<path d="M87.9092 146.083C86.6338 149.664 81.352 149.549 80.2015 145.868C79.3649 143.191 80.1344 139.704 83.365 139.154C84.2215 139.008 85.0449 139.103 85.8352 139.44C88.3009 140.489 88.7047 143.848 87.9092 146.083ZM86.5073 142.269C86.2574 139.785 82.8759 139.198 81.9097 141.406C81.7238 141.831 81.6182 142.513 81.5928 143.454C81.5425 145.272 81.573 147.434 83.6896 147.7C85.3034 147.905 86.4646 146.88 86.556 145.252C86.616 144.186 86.5997 143.191 86.5073 142.269Z" fill="#222222"/>
<path d="M100.288 147.297L100.289 151.002C100.289 151.07 100.323 151.105 100.391 151.105H101.848C101.913 151.105 101.946 151.137 101.946 151.202V151.907C101.946 151.932 101.936 151.955 101.919 151.973C101.902 151.99 101.879 152 101.854 152L97.5767 151.998C97.5015 151.998 97.464 151.961 97.464 151.885V151.245C97.4638 151.227 97.4671 151.21 97.4738 151.193C97.4805 151.176 97.4905 151.161 97.5031 151.149C97.5156 151.136 97.5307 151.126 97.5472 151.119C97.5638 151.112 97.5816 151.108 97.5996 151.108L98.677 151.102C98.702 151.102 98.7261 151.091 98.7438 151.073C98.7615 151.055 98.7714 151.031 98.7714 151.005L98.773 140.624C98.773 140.568 98.7455 140.535 98.6907 140.526L97.5417 140.329C97.5199 140.325 97.5002 140.313 97.4859 140.296C97.4717 140.279 97.464 140.258 97.464 140.236L97.4624 139.737C97.4624 139.665 97.4985 139.622 97.5706 139.608L100.187 139.103C100.255 139.09 100.289 139.118 100.289 139.187L100.286 140.535C100.287 140.544 100.29 140.553 100.296 140.56C100.302 140.567 100.31 140.572 100.318 140.575C100.327 140.577 100.337 140.576 100.345 140.573C100.354 140.569 100.361 140.563 100.365 140.555C100.871 139.62 101.667 139.204 102.732 139.122C106.369 138.841 107.144 142.818 106.577 145.489C106.095 147.757 104.446 149.136 102.045 148.574C101.369 148.416 100.81 147.983 100.367 147.274C100.314 147.189 100.288 147.197 100.288 147.297ZM100.446 146.41C100.868 147.343 102.072 147.691 103.002 147.553C105.408 147.193 105.181 144.193 105.027 142.447C104.939 141.438 104.196 140.524 103.2 140.278C101.993 139.98 100.294 140.599 100.289 142.103C100.286 143.129 100.287 144.155 100.291 145.182C100.293 145.775 100.345 146.184 100.446 146.41Z" fill="#222222"/>
<path d="M109.411 148.701C110.051 148.701 110.569 148.181 110.569 147.54C110.569 146.898 110.051 146.378 109.411 146.378C108.772 146.378 108.253 146.898 108.253 147.54C108.253 148.181 108.772 148.701 109.411 148.701Z" fill="#222222"/>
<path d="M31.1646 85.5929C31.2225 57.9582 50.1232 34.5166 76.8809 28.4212C91.0621 25.1894 106.522 27.5182 119.082 34.9093C137.149 45.5399 148.16 64.4616 148.212 85.5562C148.212 85.6387 148.171 85.68 148.09 85.68H31.2515C31.2284 85.68 31.2063 85.6708 31.1901 85.6545C31.1738 85.6381 31.1646 85.616 31.1646 85.5929Z" fill="#EF865B"/>
</svg>
