<svg width="180" height="180" viewBox="0 0 180 180" fill="none" xmlns="http://www.w3.org/2000/svg">
<path d="M148.101 87.5741H31.2743C31.2171 87.5741 31.1707 87.6207 31.1707 87.6781V91.1411C31.1707 91.1985 31.2171 91.2451 31.2743 91.2451H148.101C148.158 91.2451 148.204 91.1985 148.204 91.1411V87.6781C148.204 87.6207 148.158 87.5741 148.101 87.5741Z" fill="#333333"/>
<path d="M148.113 93.0806H31.2621C31.2116 93.0806 31.1707 93.1217 31.1707 93.1723V96.6598C31.1707 96.7105 31.2116 96.7515 31.2621 96.7515H148.113C148.164 96.7515 148.204 96.7105 148.204 96.6598V93.1723C148.204 93.1217 148.164 93.0806 148.113 93.0806Z" fill="#333333"/>
<path d="M148.104 128.876H31.2682C31.2144 128.876 31.1707 128.919 31.1707 128.973V130.61C31.1707 130.664 31.2144 130.708 31.2682 130.708H148.104C148.158 130.708 148.201 130.664 148.201 130.61V128.973C148.201 128.919 148.158 128.876 148.104 128.876Z" fill="#333333"/>
<path d="M107.855 121.229L106.552 117.199C106.548 117.185 106.539 117.174 106.528 117.165C106.516 117.157 106.502 117.153 106.488 117.153H99.9905C99.9764 117.153 99.9626 117.157 99.9511 117.165C99.9396 117.174 99.931 117.185 99.9265 117.199L98.613 121.228C98.6096 121.238 98.6086 121.249 98.6102 121.259C98.6118 121.27 98.6159 121.28 98.6222 121.289C98.6285 121.297 98.6367 121.304 98.6462 121.309C98.6557 121.314 98.6663 121.316 98.677 121.316L100.816 121.315C100.825 121.315 100.834 121.317 100.842 121.32C100.85 121.323 100.858 121.328 100.864 121.335C100.87 121.341 100.875 121.348 100.878 121.356C100.882 121.365 100.884 121.373 100.884 121.382L100.885 123.299C100.885 123.317 100.878 123.334 100.865 123.346C100.853 123.359 100.836 123.366 100.818 123.366H94.5549C94.5371 123.366 94.52 123.359 94.5075 123.346C94.4949 123.334 94.4878 123.317 94.4878 123.299V121.384C94.4878 121.366 94.4949 121.349 94.5075 121.336C94.52 121.324 94.5371 121.316 94.5549 121.316H95.9248C95.9387 121.316 95.9521 121.312 95.9633 121.303C95.9745 121.295 95.9829 121.284 95.9873 121.271L102.295 102.832C102.299 102.818 102.307 102.807 102.319 102.799C102.33 102.79 102.343 102.786 102.357 102.786H106.4C106.414 102.786 106.427 102.79 106.438 102.799C106.45 102.807 106.458 102.818 106.462 102.832L112.77 121.267C112.774 121.281 112.783 121.292 112.794 121.3C112.805 121.309 112.818 121.313 112.832 121.313L114.187 121.321C114.205 121.321 114.222 121.328 114.234 121.341C114.247 121.353 114.254 121.37 114.254 121.388V123.299C114.254 123.317 114.247 123.334 114.234 123.346C114.222 123.359 114.205 123.366 114.187 123.366H105.641C105.623 123.366 105.606 123.359 105.594 123.346C105.581 123.334 105.574 123.317 105.574 123.299V121.382C105.574 121.364 105.581 121.347 105.594 121.335C105.606 121.322 105.623 121.315 105.641 121.315L107.791 121.318C107.802 121.318 107.812 121.316 107.822 121.311C107.832 121.306 107.84 121.299 107.846 121.29C107.852 121.281 107.856 121.271 107.858 121.261C107.86 121.25 107.859 121.239 107.855 121.229ZM100.586 114.93C100.584 114.938 100.583 114.946 100.585 114.954C100.586 114.962 100.589 114.969 100.594 114.975C100.598 114.982 100.604 114.987 100.611 114.991C100.618 114.994 100.626 114.996 100.634 114.996L105.888 114.987C105.896 114.987 105.904 114.985 105.911 114.982C105.918 114.978 105.924 114.973 105.929 114.967C105.934 114.96 105.937 114.953 105.938 114.945C105.94 114.937 105.939 114.929 105.937 114.921L103.294 106.585C103.291 106.575 103.285 106.566 103.276 106.56C103.267 106.553 103.257 106.55 103.246 106.55C103.236 106.55 103.225 106.553 103.217 106.56C103.208 106.566 103.201 106.575 103.198 106.585L100.586 114.93Z" fill="#222222"/>
<path d="M24.5434 104.355V102.867C24.5424 102.814 24.5683 102.787 24.6211 102.786H27.9675C28.0224 102.786 28.0498 102.813 28.0498 102.867L28.0483 108.809C28.0483 108.833 28.0388 108.856 28.022 108.873C28.0051 108.89 27.9822 108.899 27.9584 108.899H24.6226C24.6117 108.899 24.6009 108.897 24.5908 108.893C24.5807 108.889 24.5715 108.882 24.5639 108.875C24.5562 108.867 24.5502 108.858 24.5461 108.847C24.5421 108.837 24.5401 108.826 24.5403 108.815C24.5586 107.605 24.6439 106.607 23.9506 105.794C22.8869 104.548 19.7508 104.415 18.3686 105.205C17.1881 105.882 16.7305 106.876 16.9956 108.188C17.1846 109.127 17.9145 109.618 18.8304 109.95C21.0689 110.762 23.5178 110.741 25.7091 112.098C27.7887 113.385 28.6939 115.369 28.4247 118.051C28.1382 120.913 25.9667 122.852 23.2801 123.464C20.8937 124.008 18.2528 123.903 16.5781 121.85C16.5232 121.784 16.4958 121.794 16.4958 121.879V123.293C16.4958 123.342 16.4719 123.366 16.4242 123.366H13.0747C13.0249 123.366 13 123.341 13 123.29V117.362C13 117.342 13.008 117.323 13.0223 117.308C13.0366 117.294 13.056 117.286 13.0762 117.286H16.3906C16.4536 117.286 16.4856 117.318 16.4866 117.381C16.4866 118.167 16.4318 119.175 16.7335 119.827C17.5671 121.628 20.6209 121.619 22.2606 121.238C23.975 120.841 24.8588 119.304 24.3742 117.566C24.167 116.823 23.5391 116.37 22.7848 116.11C21.903 115.806 20.8627 115.537 19.6639 115.304C18.4753 115.071 16.9468 114.554 15.938 113.896C13.9682 112.615 13.0411 110.71 13.157 108.184C13.2956 105.152 15.2218 103.245 18.0577 102.639C20.086 102.204 23.2176 102.308 24.4641 104.376C24.518 104.465 24.5444 104.458 24.5434 104.355Z" fill="#222222"/>
<path d="M120.054 103.393C122.559 102.067 126.524 101.802 128.354 104.459C128.359 104.466 128.367 104.471 128.375 104.474C128.383 104.477 128.392 104.477 128.4 104.475C128.408 104.472 128.416 104.467 128.421 104.46C128.426 104.453 128.429 104.445 128.429 104.436L128.432 102.867C128.432 102.814 128.459 102.787 128.511 102.787L131.795 102.784C131.858 102.784 131.89 102.816 131.89 102.881V109.306C131.89 109.359 131.863 109.386 131.811 109.386L128.508 109.384C128.459 109.384 128.434 109.359 128.434 109.309C128.437 109.076 128.424 108.63 128.396 107.972C128.298 105.778 126.706 104.759 124.664 104.765C122.661 104.771 121.191 105.814 120.709 107.847C120.598 108.312 120.535 108.999 120.52 109.907C120.479 112.324 120.466 114.223 120.482 115.603C120.516 118.268 121.45 120.403 124.27 120.853C125.362 121.026 126.388 120.9 127.35 120.474C128.693 119.877 129.691 118.69 130.235 117.324C130.239 117.314 130.245 117.306 130.253 117.298C130.26 117.291 130.269 117.286 130.279 117.282C130.289 117.279 130.3 117.278 130.311 117.279C130.321 117.28 130.331 117.284 130.34 117.289L131.961 118.23C132.007 118.256 132.021 118.294 132.004 118.343C130.947 121.391 128.258 123.479 125.081 123.716C120.638 124.045 117.05 121.567 115.792 117.278C114.693 113.534 114.973 109.058 117.329 105.762C118.04 104.767 118.949 103.977 120.054 103.393Z" fill="#222222"/>
<path d="M43.0539 121.248L41.7403 117.19C41.7368 117.179 41.7301 117.17 41.7211 117.163C41.712 117.157 41.7012 117.153 41.69 117.153H35.1724C35.1613 117.153 35.1504 117.157 35.1414 117.163C35.1324 117.17 35.1256 117.179 35.1221 117.19L33.8009 121.248C33.7983 121.256 33.7976 121.264 33.7988 121.272C33.8001 121.281 33.8033 121.289 33.8082 121.296C33.8131 121.302 33.8196 121.308 33.827 121.312C33.8345 121.316 33.8428 121.318 33.8512 121.318L36.0197 121.316C36.0338 121.316 36.0474 121.322 36.0574 121.332C36.0674 121.342 36.073 121.356 36.073 121.37V123.313C36.073 123.327 36.0674 123.34 36.0574 123.35C36.0474 123.36 36.0338 123.366 36.0197 123.366H29.7352C29.7282 123.366 29.7213 123.365 29.7148 123.362C29.7083 123.359 29.7025 123.355 29.6975 123.35C29.6926 123.345 29.6886 123.339 29.6859 123.333C29.6833 123.326 29.6819 123.32 29.6819 123.313L29.6849 121.373C29.6849 121.359 29.6905 121.345 29.7006 121.335C29.7106 121.325 29.7241 121.319 29.7383 121.319L31.128 121.316C31.1392 121.316 31.15 121.313 31.1591 121.306C31.1681 121.3 31.1748 121.29 31.1783 121.28L37.4902 102.822C37.4937 102.812 37.5005 102.803 37.5095 102.796C37.5185 102.789 37.5294 102.786 37.5405 102.786H41.6032C41.6143 102.786 41.6252 102.789 41.6342 102.796C41.6432 102.803 41.65 102.812 41.6535 102.822L47.9669 121.281C47.9704 121.292 47.9771 121.301 47.9861 121.308C47.9952 121.314 48.006 121.318 48.0172 121.318L49.3963 121.315C49.4104 121.315 49.424 121.321 49.434 121.331C49.444 121.341 49.4496 121.354 49.4496 121.368L49.4527 123.313C49.4527 123.327 49.447 123.34 49.437 123.35C49.427 123.36 49.4135 123.366 49.3993 123.366H40.8199C40.8058 123.366 40.7922 123.36 40.7822 123.35C40.7722 123.34 40.7666 123.327 40.7666 123.313L40.7681 121.37C40.7681 121.356 40.7737 121.342 40.7837 121.332C40.7937 121.322 40.8073 121.316 40.8214 121.316L43.0036 121.318C43.012 121.318 43.0203 121.316 43.0278 121.312C43.0353 121.308 43.0417 121.302 43.0466 121.296C43.0515 121.289 43.0547 121.281 43.056 121.272C43.0573 121.264 43.0566 121.256 43.0539 121.248ZM38.3893 106.555L35.7896 114.909C35.7733 114.964 35.7936 114.992 35.8505 114.992H41.0546C41.1216 114.992 41.145 114.96 41.1247 114.897L38.4686 106.553C38.4421 106.469 38.4157 106.47 38.3893 106.555Z" fill="#222222"/>
<path d="M52.9241 104.812L50.9887 104.809C50.9742 104.809 50.9602 104.804 50.9499 104.793C50.9396 104.783 50.9339 104.769 50.9339 104.754L50.9369 102.841C50.9369 102.826 50.9427 102.812 50.953 102.802C50.9633 102.791 50.9772 102.786 50.9918 102.786H58.8977C58.9072 102.786 58.9166 102.788 58.9249 102.793C58.9332 102.798 58.9401 102.805 58.9449 102.813L67.2896 117.367C67.2957 117.377 67.3051 117.386 67.3162 117.39C67.3273 117.395 67.3395 117.395 67.3511 117.392C67.3627 117.389 67.3729 117.382 67.3803 117.373C67.3876 117.363 67.3916 117.352 67.3917 117.34L67.3902 104.866C67.3902 104.851 67.3844 104.837 67.3742 104.827C67.3639 104.817 67.3499 104.811 67.3354 104.811H65.3833C65.3687 104.811 65.3548 104.805 65.3445 104.795C65.3342 104.784 65.3284 104.77 65.3284 104.756L65.3269 102.841C65.3269 102.826 65.3327 102.812 65.343 102.802C65.3532 102.791 65.3672 102.786 65.3818 102.786H71.7272C71.7417 102.786 71.7557 102.791 71.766 102.802C71.7763 102.812 71.782 102.826 71.782 102.841V104.754C71.782 104.769 71.7763 104.783 71.766 104.793C71.7557 104.804 71.7417 104.809 71.7272 104.809L69.8269 104.812C69.8124 104.812 69.7984 104.818 69.7881 104.828C69.7778 104.839 69.772 104.853 69.772 104.867V123.311C69.772 123.326 69.7663 123.34 69.756 123.35C69.7457 123.36 69.7317 123.366 69.7172 123.366H65.4107C65.4011 123.366 65.3917 123.363 65.3834 123.359C65.3751 123.354 65.3683 123.347 65.3635 123.339L55.4765 106.376C55.4705 106.365 55.4611 106.357 55.45 106.353C55.4389 106.348 55.4267 106.347 55.4151 106.35C55.4035 106.354 55.3932 106.36 55.3859 106.37C55.3786 106.379 55.3745 106.391 55.3744 106.403L55.3729 121.26C55.3729 121.274 55.3787 121.288 55.389 121.299C55.3993 121.309 55.4132 121.315 55.4278 121.315L57.3692 121.319C57.3838 121.319 57.3977 121.325 57.408 121.336C57.4183 121.346 57.4241 121.36 57.4241 121.375L57.4271 123.311C57.4271 123.326 57.4213 123.34 57.411 123.35C57.4008 123.36 57.3868 123.366 57.3723 123.366H50.9887C50.9815 123.366 50.9744 123.365 50.9677 123.362C50.9611 123.359 50.955 123.355 50.9499 123.35C50.9448 123.345 50.9408 123.339 50.938 123.332C50.9353 123.325 50.9339 123.318 50.9339 123.311L50.9369 121.373C50.9369 121.358 50.9427 121.344 50.953 121.334C50.9633 121.324 50.9772 121.318 50.9918 121.318L52.9256 121.315C52.9328 121.315 52.9399 121.313 52.9466 121.311C52.9532 121.308 52.9593 121.304 52.9644 121.299C52.9695 121.294 52.9735 121.288 52.9763 121.281C52.979 121.274 52.9804 121.267 52.9804 121.26L52.9789 104.867C52.9789 104.853 52.9731 104.839 52.9628 104.828C52.9526 104.818 52.9386 104.812 52.9241 104.812Z" fill="#222222"/>
<path d="M76.1251 121.252V104.892C76.1251 104.839 76.0982 104.812 76.0443 104.812L74.1593 104.811C74.0994 104.811 74.0694 104.781 74.0694 104.721V102.879C74.0694 102.822 74.0978 102.793 74.1547 102.793C79.1175 102.775 82.4284 102.775 84.0874 102.795C86.1019 102.819 88.1988 103.474 89.811 104.705C93.0005 107.14 93.9042 111.062 93.4181 114.946C92.8938 119.14 90.2118 122.237 86.0638 123.14C85.4289 123.278 84.5867 123.351 83.5372 123.357C80.4072 123.374 77.2766 123.375 74.1456 123.358C74.0948 123.358 74.0694 123.333 74.0694 123.282L74.0709 121.422C74.0709 121.352 74.106 121.316 74.1761 121.316H76.0596C76.1033 121.316 76.1251 121.295 76.1251 121.252ZM86.5469 105.897C85.0291 104.838 82.8256 104.962 81.0213 105.022C80.9756 105.023 80.9527 105.046 80.9527 105.092V121.069C80.9527 121.118 80.9766 121.144 81.0244 121.148C82.3369 121.265 83.6332 121.195 84.9133 120.937C86.7313 120.57 87.8803 119.397 88.0891 117.499C88.1454 116.977 88.243 116.5 88.243 115.961C88.2389 114.084 88.2384 112.207 88.2414 110.33C88.2425 110.032 88.2303 109.75 88.2049 109.485C88.0647 108.029 87.7584 106.744 86.5469 105.897Z" fill="#222222"/>
<path d="M148.829 104.812L146.923 104.811C146.908 104.811 146.894 104.805 146.884 104.795C146.874 104.784 146.868 104.77 146.868 104.756L146.865 102.841C146.865 102.826 146.871 102.812 146.881 102.802C146.891 102.791 146.905 102.786 146.92 102.786H155.734C155.749 102.786 155.762 102.791 155.773 102.802C155.783 102.812 155.789 102.826 155.789 102.841V104.756C155.789 104.77 155.783 104.784 155.773 104.795C155.762 104.805 155.749 104.811 155.734 104.811H153.786C153.772 104.811 153.758 104.817 153.748 104.827C153.737 104.837 153.732 104.851 153.732 104.866V121.26C153.732 121.274 153.737 121.288 153.748 121.299C153.758 121.309 153.772 121.315 153.786 121.315L155.734 121.316C155.749 121.316 155.762 121.322 155.773 121.333C155.783 121.343 155.789 121.357 155.789 121.371V123.311C155.789 123.326 155.783 123.34 155.773 123.35C155.762 123.36 155.749 123.366 155.734 123.366H146.92C146.905 123.366 146.891 123.36 146.881 123.35C146.871 123.34 146.865 123.326 146.865 123.311L146.87 121.37C146.87 121.355 146.875 121.341 146.886 121.331C146.896 121.321 146.91 121.315 146.924 121.315L148.829 121.318C148.836 121.318 148.844 121.317 148.85 121.314C148.857 121.311 148.863 121.307 148.868 121.302C148.873 121.297 148.877 121.291 148.88 121.284C148.883 121.277 148.884 121.27 148.884 121.263V113.981C148.884 113.966 148.878 113.952 148.868 113.942C148.858 113.931 148.844 113.926 148.829 113.926H141.248C141.233 113.926 141.22 113.931 141.209 113.942C141.199 113.952 141.193 113.966 141.193 113.981L141.192 121.26C141.192 121.274 141.197 121.288 141.208 121.299C141.218 121.309 141.232 121.315 141.246 121.315L143.188 121.318C143.202 121.318 143.216 121.324 143.227 121.334C143.237 121.344 143.243 121.358 143.243 121.373L143.246 123.311C143.246 123.326 143.24 123.34 143.23 123.35C143.219 123.36 143.205 123.366 143.191 123.366H134.368C134.353 123.366 134.339 123.36 134.329 123.35C134.319 123.34 134.313 123.326 134.313 123.311L134.314 121.373C134.314 121.358 134.32 121.344 134.33 121.334C134.341 121.324 134.355 121.318 134.369 121.318L136.308 121.315C136.322 121.315 136.336 121.309 136.346 121.299C136.357 121.288 136.362 121.274 136.362 121.26V104.867C136.362 104.853 136.357 104.839 136.346 104.828C136.336 104.818 136.322 104.812 136.308 104.812L134.365 104.809C134.35 104.809 134.336 104.804 134.326 104.793C134.316 104.783 134.31 104.769 134.31 104.754L134.316 102.841C134.316 102.826 134.322 102.812 134.332 102.802C134.342 102.791 134.356 102.786 134.371 102.786H143.189C143.204 102.786 143.218 102.791 143.228 102.802C143.239 102.812 143.244 102.826 143.244 102.841V104.757C143.244 104.772 143.239 104.786 143.228 104.796C143.218 104.807 143.204 104.812 143.189 104.812L141.248 104.811C141.233 104.811 141.22 104.817 141.209 104.827C141.199 104.837 141.193 104.851 141.193 104.866L141.192 111.611C141.192 111.619 141.193 111.626 141.196 111.632C141.199 111.639 141.203 111.645 141.208 111.65C141.213 111.655 141.219 111.659 141.225 111.662C141.232 111.665 141.239 111.666 141.246 111.666L148.829 111.668C148.844 111.668 148.858 111.662 148.868 111.652C148.878 111.641 148.884 111.627 148.884 111.613V104.867C148.884 104.853 148.878 104.839 148.868 104.828C148.858 104.818 148.844 104.812 148.829 104.812Z" fill="#222222"/>
<path d="M160.057 104.812L158.142 104.809C158.123 104.809 158.105 104.802 158.092 104.789C158.079 104.776 158.072 104.758 158.072 104.739L158.073 102.856C158.073 102.837 158.081 102.819 158.094 102.806C158.107 102.793 158.125 102.786 158.143 102.786H166.925C166.944 102.786 166.962 102.793 166.975 102.806C166.988 102.819 166.995 102.837 166.995 102.856L166.998 104.74C166.998 104.75 166.997 104.759 166.993 104.767C166.99 104.776 166.984 104.784 166.978 104.79C166.971 104.797 166.964 104.802 166.955 104.805C166.947 104.809 166.938 104.811 166.928 104.811H165.011C164.993 104.811 164.975 104.818 164.962 104.831C164.949 104.845 164.941 104.863 164.941 104.881V121.243C164.941 121.262 164.949 121.28 164.962 121.293C164.975 121.306 164.993 121.313 165.011 121.313L166.924 121.319C166.933 121.319 166.942 121.321 166.951 121.325C166.959 121.328 166.967 121.334 166.973 121.34C166.98 121.347 166.985 121.354 166.989 121.363C166.992 121.371 166.994 121.381 166.994 121.39L167 123.296C167 123.314 166.993 123.332 166.979 123.345C166.966 123.359 166.948 123.366 166.93 123.366H158.142C158.123 123.366 158.105 123.359 158.092 123.345C158.079 123.332 158.072 123.314 158.072 123.296L158.073 121.39C158.073 121.371 158.081 121.353 158.094 121.34C158.107 121.327 158.125 121.319 158.143 121.319L160.057 121.315C160.076 121.315 160.094 121.307 160.107 121.294C160.12 121.281 160.127 121.263 160.127 121.245V104.883C160.127 104.864 160.12 104.846 160.107 104.833C160.094 104.82 160.076 104.812 160.057 104.812Z" fill="#222222"/>
<path d="M76.7971 137.134L76.7925 136.3C76.7915 136.243 76.82 136.214 76.8779 136.214H78.068C78.1178 136.214 78.1427 136.24 78.1427 136.291V139.815C78.1427 139.837 78.1342 139.857 78.1191 139.872C78.1039 139.888 78.0834 139.896 78.0619 139.896L76.887 139.893C76.8651 139.893 76.844 139.884 76.8283 139.869C76.8126 139.853 76.8036 139.832 76.8032 139.81C76.7925 138.809 76.8185 137.95 75.8203 137.44C74.0846 136.551 71.8598 137.074 71.0155 138.96C70.7758 139.496 70.633 140.06 70.5873 140.65C70.4918 141.88 70.505 143.108 70.6269 144.333C70.9271 147.382 74.682 148.745 76.7971 146.478C77.1004 146.152 77.3076 145.736 77.5271 145.328C77.5525 145.281 77.5895 145.269 77.6383 145.292L78.2219 145.577C78.263 145.597 78.2947 145.632 78.3106 145.675C78.3265 145.718 78.3253 145.765 78.3073 145.808C77.4285 147.855 75.8762 148.84 73.6503 148.763C71.3249 148.682 69.7842 147.22 69.1686 145.06C68.6484 143.237 68.6601 141.416 69.2036 139.599C69.8934 137.299 71.4488 136.104 73.8698 136.014C75.0198 135.971 75.9895 136.347 76.7788 137.143C76.791 137.155 76.7971 137.152 76.7971 137.134Z" fill="#222222"/>
<path d="M92.6576 140.684C92.6577 140.69 92.6599 140.696 92.6637 140.701C92.6675 140.705 92.6728 140.709 92.6788 140.71C92.6847 140.712 92.691 140.711 92.6966 140.708C92.7021 140.706 92.7067 140.702 92.7095 140.696C93.2459 139.65 94.0489 139.16 95.1187 139.228C95.5505 139.255 95.8989 139.371 96.1641 139.576C96.7553 140.034 96.8544 141.014 96.3972 141.586C96.1463 141.899 95.7877 141.979 95.3214 141.825C94.7596 141.639 94.5366 141.234 94.6524 140.609C94.689 140.408 94.7789 140.25 94.9221 140.135C94.9709 140.095 94.9643 140.072 94.9023 140.066C94.0642 139.983 93.2169 140.717 92.9015 141.409C92.7592 141.721 92.6896 142.243 92.6927 142.975C92.6998 144.523 92.7008 146.069 92.6957 147.614C92.6957 147.668 92.7232 147.695 92.778 147.695L94.2684 147.697C94.3182 147.697 94.343 147.722 94.343 147.772L94.3415 148.524C94.3405 148.577 94.3141 148.604 94.2623 148.604H89.9528C89.902 148.604 89.8766 148.578 89.8766 148.527L89.8781 147.789C89.8781 147.73 89.9076 147.699 89.9665 147.698L91.0941 147.694C91.147 147.694 91.1734 147.667 91.1734 147.613V140.728C91.1734 140.678 91.149 140.649 91.1002 140.641L89.9573 140.441C89.9035 140.431 89.8766 140.4 89.8766 140.346V139.814C89.8766 139.765 89.9009 139.735 89.9497 139.725L92.5738 139.211C92.6317 139.2 92.6607 139.224 92.6607 139.283L92.6576 140.684Z" fill="#222222"/>
<path d="M87.9092 146.203C86.6338 149.786 81.352 149.672 80.2015 145.987C79.3649 143.307 80.1344 139.817 83.365 139.266C84.2215 139.12 85.0448 139.215 85.8352 139.552C88.3009 140.603 88.7047 143.965 87.9092 146.203ZM86.5073 142.385C86.2573 139.898 82.8759 139.31 81.9097 141.52C81.7238 141.946 81.6182 142.629 81.5928 143.57C81.5425 145.39 81.573 147.555 83.6896 147.821C85.3034 148.026 86.4646 146.999 86.556 145.37C86.616 144.303 86.5997 143.308 86.5073 142.385Z" fill="#222222"/>
<path d="M100.288 147.417L100.289 151.126C100.289 151.195 100.323 151.229 100.391 151.229H101.848C101.913 151.229 101.946 151.261 101.946 151.327V152.032C101.946 152.056 101.936 152.08 101.919 152.098C101.902 152.115 101.878 152.125 101.854 152.125L97.5767 152.123C97.5015 152.123 97.464 152.086 97.464 152.01V151.369C97.4638 151.352 97.4671 151.334 97.4738 151.317C97.4805 151.301 97.4905 151.285 97.503 151.273C97.5156 151.26 97.5306 151.25 97.5472 151.243C97.5638 151.236 97.5816 151.232 97.5996 151.232L98.677 151.226C98.702 151.226 98.726 151.215 98.7438 151.197C98.7615 151.179 98.7714 151.155 98.7714 151.129L98.773 140.737C98.773 140.681 98.7455 140.649 98.6907 140.639L97.5417 140.442C97.5199 140.438 97.5001 140.427 97.4859 140.41C97.4717 140.393 97.464 140.371 97.464 140.349L97.4624 139.85C97.4624 139.778 97.4985 139.734 97.5706 139.72L100.187 139.215C100.255 139.202 100.289 139.23 100.289 139.3L100.286 140.649C100.287 140.658 100.29 140.667 100.296 140.674C100.302 140.681 100.31 140.686 100.318 140.688C100.327 140.69 100.337 140.69 100.345 140.686C100.354 140.683 100.361 140.676 100.365 140.669C100.871 139.732 101.667 139.316 102.732 139.234C106.369 138.952 107.144 142.934 106.577 145.607C106.095 147.877 104.446 149.259 102.045 148.696C101.369 148.538 100.81 148.104 100.367 147.394C100.314 147.309 100.288 147.317 100.288 147.417ZM100.446 146.53C100.868 147.463 102.072 147.812 103.002 147.674C105.408 147.313 105.181 144.31 105.027 142.562C104.939 141.553 104.196 140.638 103.2 140.392C101.993 140.093 100.294 140.713 100.289 142.218C100.286 143.245 100.287 144.272 100.291 145.3C100.293 145.894 100.345 146.303 100.446 146.53Z" fill="#222222"/>
<path d="M109.411 148.823C110.051 148.823 110.569 148.302 110.569 147.66C110.569 147.018 110.051 146.498 109.411 146.498C108.772 146.498 108.253 147.018 108.253 147.66C108.253 148.302 108.772 148.823 109.411 148.823Z" fill="#222222"/>
<path d="M31.1646 85.6515C31.2225 57.9892 50.1232 34.5241 76.8809 28.4226C91.0621 25.1876 106.522 27.5187 119.082 34.9172C137.149 45.5584 148.16 64.4991 148.212 85.6148C148.212 85.6974 148.171 85.7386 148.09 85.7386H31.2515C31.2284 85.7386 31.2063 85.7295 31.1901 85.7131C31.1738 85.6968 31.1646 85.6746 31.1646 85.6515Z" fill="#333333"/>
</svg>
